<?xml version="1.0" encoding="utf-8"?>
<!-- Svg Vector Icons : http://www.onlinewebfonts.com/icon -->
<!DOCTYPE svg PUBLIC "-//W3C//DTD SVG 1.1//EN" "http://www.w3.org/Graphics/SVG/1.1/DTD/svg11.dtd">
<svg version="1.1" xmlns="http://www.w3.org/2000/svg" xmlns:xlink="http://www.w3.org/1999/xlink" x="0px" y="0px" viewBox="0 0 1000 1000" enable-background="new 0 0 1000 1000" xml:space="preserve">
<metadata> Svg Vector Icons : http://www.onlinewebfonts.com/icon </metadata>
<g><path d="M135.3,601.3c41.7,114.9,138.3,202.1,254.8,236.4c20.6,39.7,62.1,66.9,109.9,66.9c47.8,0,89.2-27.2,109.9-66.9C726.4,803.4,823,716.2,864.7,601.3C933.9,600.5,990,544,990,474.6c0-69.4-56.1-126-125.3-126.8c-47-129.7-164-224.1-300.6-247c-2.3-0.9-4.7-1.5-7.4-1.6c-1.7-0.1-3.5-0.1-5.3-0.2c-16.9-2.3-34-3.7-51.4-3.7c-163.2,0-310.5,102.9-364.7,252.5C66.1,348.6,10,405.2,10,474.6C10,544,66.1,600.5,135.3,601.3z M423.6,673.9c0-13.4,30.5-33.8,76.4-33.8c45.9,0,76.4,20.3,76.4,33.8c0,2.3-1.2,4.9-2.9,7.4C552.9,666.1,527.5,657,500,657c-27.5,0-52.9,9.1-73.5,24.4C424.8,678.8,423.6,676.3,423.6,673.9z M524.5,852.8c-7.7,2.6-15.9,4.4-24.5,4.4c-8.6,0-16.8-1.8-24.5-4.4c-24.8-8.5-43.8-29.1-49.8-54.8c-1.3-5.5-2.1-11.2-2.1-17.2c0-13.8,4-26.7,10.5-37.9c10.4-18,27.7-31.4,48.4-36.3c5.6-1.3,11.5-2.2,17.5-2.2s11.9,0.9,17.5,2.2c20.7,4.9,38,18.3,48.4,36.3c6.5,11.2,10.5,24,10.5,37.9c0,5.9-0.8,11.6-2.1,17.2C568.3,823.8,549.2,844.4,524.5,852.8z M136.8,395.2c3.4,0,7.2,0.3,11.7,1l20.2,3l5.9-19.5c28.8-94.6,99.7-169.7,188.7-208.3c-19.9,44,7.1,98.3,52.1,119.5c56.1,26.4,146.8,29.8,185-27.6c17.2-25.9,1.9-58.6-18.9-76.3c-29.2-24.8-71.6-28.3-106.3-14.5c-28.1,11.1-15.9,57,12.6,45.7c20.6-8.2,39.4-8.8,59.2,2.1c27.1,14.9,2.1,32-16.8,37.4c-35.4,10.2-87.5,1.9-115.2-23c-34.9-31.3,10.1-66.9,37.9-76.6c30.2-10.6,63.3-12.9,95.2-11.7c129,18.4,239.4,109,277.3,233.3l5.9,19.5l20.2-3c4.6-0.7,8.3-1,11.7-1c43.8,0,79.3,35.6,79.3,79.3c0,43.8-35.6,79.3-79.3,79.3c-3.4,0-7.2-0.3-11.7-1l-20.2-3l-6,19.6C795.2,668.6,718.8,746.2,623.7,783c0-0.7,0.1-1.4,0.1-2.2c0-23.5-6.7-45.4-18.1-64.2c11.5-12.3,18.1-26.9,18.1-42.7c0-45.5-54.4-81.2-123.8-81.2c-69.4,0-123.8,35.7-123.8,81.2c0,15.8,6.7,30.4,18.1,42.7c-11.4,18.7-18.1,40.7-18.1,64.2c0,0.7,0.1,1.4,0.1,2.2c-95.1-36.8-171.4-114.4-201.7-213.5l-6-19.6l-20.2,3c-4.6,0.7-8.3,1-11.7,1c-43.8,0-79.3-35.6-79.3-79.3C57.4,430.8,93,395.2,136.8,395.2z"/><path d="M399.9,521.3c40.8,0,40.8-63.2,0-63.2C359.1,458.1,359.1,521.3,399.9,521.3z"/><path d="M600.1,517.4c40.8,0,40.8-63.2,0-63.2S559.3,517.4,600.1,517.4z"/></g>
</svg>