<svg xmlns="http://www.w3.org/2000/svg" viewBox="0 0 46.598 45.045"><defs><style>.a{fill:#525252;}</style></defs><g transform="translate(0 -1)"><path class="a" d="M49.682,40.4l-4.346,6.244-3.067-2.517a.776.776,0,1,0-.985,1.2L45,48.382a.773.773,0,0,0,.492.176.708.708,0,0,0,.106-.008.778.778,0,0,0,.531-.325l4.826-6.935a.777.777,0,0,0-1.275-.887Z" transform="translate(-9.158 -8.727)"/><path class="a" d="M42.066,27.532A21.353,21.353,0,1,0,6.933,38.091l-.02.018.692.583c.043.037.091.067.134.1.37.308.755.6,1.146.882.123.089.247.179.372.265q.623.43,1.278.816l.284.164c.476.271.962.527,1.461.762l.11.05a21.17,21.17,0,0,0,5.165,1.635l.144.026c.562.1,1.13.175,1.706.227l.21.016c.575.047,1.155.077,1.742.077a21.241,21.241,0,0,0,7.38-1.322A10.091,10.091,0,1,0,42.066,27.532ZM1.553,22.357a19.8,19.8,0,1,1,39.112,4.4l-.041-.016q-.438-.2-.9-.352c-.026-.009-.052-.02-.078-.029a10.011,10.011,0,0,0-.977-.268l-.047-.012c-.324-.07-.653-.123-.987-.161l-.07-.011a10.487,10.487,0,0,0-1.066-.057,10.108,10.108,0,0,0-9.7,7.31,1.715,1.715,0,0,1-.541-1.253v-2.3c.154-.189.315-.4.479-.635A15.8,15.8,0,0,0,28.775,25a2.82,2.82,0,0,0,1.619-2.554V19.693a2.831,2.831,0,0,0-.688-1.84V14.228a6.263,6.263,0,0,0-1.462-4.554C26.813,8.04,24.5,7.213,21.357,7.213s-5.455.827-6.886,2.46a6.265,6.265,0,0,0-1.462,4.554v3.625a2.831,2.831,0,0,0-.688,1.84v2.753a2.827,2.827,0,0,0,1.04,2.191,14.6,14.6,0,0,0,2.4,4.962v2.248a1.732,1.732,0,0,1-.9,1.521l-6.141,3.35a5.671,5.671,0,0,0-.584.37A19.762,19.762,0,0,1,1.553,22.357ZM19.886,42.1c-.085-.006-.169-.012-.253-.019-.492-.043-.983-.1-1.47-.182l-.06-.011a19.839,19.839,0,0,1-3.031-.756l-.079-.027a19.9,19.9,0,0,1-2.8-1.2l-.156-.08c-.4-.214-.791-.445-1.177-.686-.111-.07-.221-.141-.33-.212-.354-.231-.7-.472-1.043-.727l-.1-.081.075-.042,6.141-3.35a3.285,3.285,0,0,0,1.712-2.884v-2.8l-.181-.216A12.908,12.908,0,0,1,14.8,24l-.071-.308-.265-.172a1.287,1.287,0,0,1-.6-1.081V19.69a1.271,1.271,0,0,1,.433-.95l.256-.231V14.183l-.007-.1A4.678,4.678,0,0,1,15.638,10.7c1.125-1.279,3.048-1.929,5.72-1.929s4.58.645,5.705,1.915a4.756,4.756,0,0,1,1.1,3.4l-.007,4.428.256.231a1.27,1.27,0,0,1,.433.95v2.753a1.281,1.281,0,0,1-.917,1.222l-.387.12-.124.385a14.335,14.335,0,0,1-1.938,3.908,9.126,9.126,0,0,1-.572.736l-.193.22V31.91a3.264,3.264,0,0,0,1.761,2.909,10.228,10.228,0,0,0-.067,1.129q0,.34.023.678c.005.08.016.159.024.238s.014.148.023.223.012.141.021.21c.018.132.043.263.067.394.016.089.027.179.045.268l0,.009c0,.023.012.045.016.068.024.113.053.226.081.339.019.078.035.157.056.235s.043.134.063.2q.04.135.084.268c.019.056.033.113.052.168.054.156.116.31.179.463l0,.006c.047.116.1.231.148.345.038.085.078.169.118.253.026.055.05.111.077.165.018.036.039.07.057.106.065.127.134.25.205.373.021.036.04.075.061.111a19.611,19.611,0,0,1-6.451,1.092C20.865,42.162,20.374,42.138,19.886,42.1ZM36.5,44.491a8.531,8.531,0,0,1-6.914-3.545c-.064-.089-.123-.179-.183-.269-.042-.062-.086-.123-.126-.186s-.066-.107-.1-.162-.066-.116-.1-.175c-.054-.095-.111-.187-.161-.283-.037-.071-.069-.144-.1-.216l-.027-.059c-.058-.122-.119-.242-.172-.367-.028-.066-.049-.134-.075-.2-.06-.155-.12-.309-.172-.468-.024-.074-.043-.15-.064-.224-.007-.023-.013-.046-.019-.068-.043-.155-.085-.31-.12-.468-.011-.049-.019-.1-.03-.148s-.019-.094-.028-.141q-.048-.259-.08-.522l-.007-.061c-.007-.064-.017-.127-.023-.191-.024-.261-.04-.523-.04-.79,0-.245.016-.486.037-.725s.052-.465.095-.714l.057-.336A8.555,8.555,0,0,1,36.5,27.406a8.374,8.374,0,0,1,1.034.069c.078.009.155.024.232.036a8.444,8.444,0,0,1,.843.17c.058.015.116.029.175.045A8.538,8.538,0,0,1,36.5,44.491Z"/></g></svg>