<svg width="50" height="50" viewBox="0 0 50 50" fill="none" xmlns="http://www.w3.org/2000/svg">
	<path d="M49.6727 0.335938H0.338867V49.6682H49.6727V0.335938Z" fill="white"/>
	<path d="M0.338867 49.6682H49.6727V0.335938H0.338867V49.6682ZM46.3897 20.8416C46.3082 22.3779 45.8195 24.294 45.3881 25.5738C43.6542 30.7271 41.6421 33.923 36.9848 33.923C35.6139 33.923 33.1808 33.5593 32.284 31.119L32.0719 30.54L31.6897 31.0238C30.2324 32.869 28.0687 33.9335 25.7518 33.9448C23.9752 33.9529 22.5461 33.3577 21.6227 32.2222L21.3703 31.9101L21.1002 32.2085C20.1131 33.298 18.3953 33.9222 16.3848 33.9222C14.8074 33.9222 13.4445 33.3851 12.5485 32.4134L12.3042 32.148L12.0502 32.4045C11.0542 33.4109 9.48403 33.9182 7.50984 33.8722C5.11387 33.815 3.6558 32.4779 3.60822 30.2948C3.53564 26.9279 6.79451 19.8448 8.1429 17.6908C9.01871 16.2521 10.2227 15.5545 11.8252 15.5545C12.9163 15.5545 13.6614 15.7827 14.105 16.2521C14.5082 16.6795 14.5889 17.04 14.6244 17.9061L14.6711 19.0263L15.2623 18.0738C16.6921 15.7698 19.0631 15.4513 21.4114 15.4513C23.0437 15.4513 24.4687 16.0521 25.0405 16.9811L25.2526 17.323L25.5582 17.0634C26.7687 16.0351 28.476 15.4682 30.3663 15.4682C32.43 15.4682 33.9292 15.9811 34.8227 16.9932C35.026 17.223 35.1606 17.3835 35.3469 17.7763L35.5768 18.2585L35.9211 17.8513C37.2308 16.3029 39.0187 15.5174 41.2365 15.5174C42.9937 15.5174 44.3276 15.9851 45.2002 16.9061C46.2953 18.0585 46.4518 19.6827 46.3897 20.8416Z" fill="#F6EC36"/>
	<path d="M0.338867 49.6682H49.6727V0.335938H0.338867V49.6682ZM47.7792 22.7343C47.5566 24.5303 46.3429 27.8561 45.6985 29.1859C43.9679 32.7496 41.6574 35.4875 37.2058 35.4875C34.8276 35.4875 32.8703 34.7295 31.7268 33.2706C30.051 34.7392 27.9776 35.5077 25.7445 35.5077C24.0244 35.5077 22.5042 35.0109 21.3453 34.0924C20.0655 34.994 18.3389 35.4964 16.426 35.4964C14.8284 35.4964 13.3897 35.0577 12.2647 34.2464C11.0195 35.0722 9.38806 35.4835 7.47354 35.4375C4.28645 35.3625 2.08564 33.3408 2.02274 30.4061C1.93887 26.5077 5.22274 19.3722 6.77032 16.9013C7.92838 14.9988 9.69532 13.9755 11.8606 13.9755C14.2114 13.9755 15.0639 14.6472 15.4824 15.5021C17.2961 13.9617 19.7002 13.873 21.4123 13.873C23.3026 13.873 24.4873 14.3746 25.4953 15.1771C26.8889 14.3416 28.4864 13.9077 30.3889 13.9077C32.8219 13.9077 34.63 14.4738 35.8905 15.7198C37.3606 14.4956 39.2018 13.9384 41.2631 13.9384C43.9881 13.9384 45.7816 14.9214 46.834 16.3867C48.3179 18.4545 48.0526 20.5351 47.7792 22.7343Z" fill="#D01012"/>
	<path d="M0 50H50V0H0V50ZM49.3121 49.3129H0.68871V0.68871H49.3129V49.3129H49.3121Z" fill="black"/>
	<path d="M47.538 15.0048V14.6645H47.7686C47.938 14.6645 48.0259 14.7234 48.0259 14.833C48.0259 14.9201 47.9694 15.004 47.7976 15.004H47.538V15.0048ZM48.3678 15.7113L48.2243 15.4613C48.0993 15.2427 48.0646 15.208 47.9573 15.1709V15.1645C48.1678 15.1395 48.2928 15.0048 48.2928 14.8177C48.2928 14.6201 48.1678 14.4701 47.9017 14.4701H47.2823V15.7121H47.5388V15.204H47.5864C47.696 15.204 47.7388 15.2161 47.7896 15.2661C47.8396 15.3169 47.9138 15.4225 47.9581 15.5096L48.0589 15.7121L48.3678 15.7113ZM47.7573 14.125C48.2896 14.125 48.7226 14.5548 48.7226 15.0863C48.7226 15.6177 48.2888 16.05 47.7573 16.05C47.2259 16.05 46.7984 15.6177 46.7984 15.0863C46.7984 14.5548 47.2259 14.125 47.7573 14.125ZM47.7573 13.8887C47.0952 13.8887 46.5605 14.4233 46.5605 15.0863C46.5605 15.7492 47.0952 16.2838 47.7573 16.2838C48.421 16.2838 48.9557 15.7492 48.9557 15.0863C48.9565 14.4225 48.421 13.8887 47.7573 13.8887Z" fill="black"/>
	<path d="M41.236 15.171C38.6521 15.171 36.8667 16.196 35.6578 17.6266C35.4538 17.1984 35.2989 17.0105 35.0804 16.7637C34.09 15.6452 32.5005 15.1234 30.365 15.1234C28.2796 15.1234 26.5409 15.775 25.3336 16.8008C24.707 15.7814 23.2126 15.1064 21.411 15.1064C19.0562 15.1064 16.4901 15.4395 14.9691 17.8919C14.932 17.0089 14.8521 16.5419 14.3554 16.0161C13.7521 15.3774 12.7763 15.2105 11.8247 15.2105C10.0925 15.2105 8.78924 15.9677 7.85053 17.5089C6.48924 19.6831 3.18924 26.8371 3.26344 30.3016C3.31182 32.5395 4.81344 34.1524 7.50053 34.2161C9.60053 34.2661 11.2473 33.7048 12.2949 32.6476C13.2344 33.6693 14.6683 34.2685 16.3852 34.2685C18.2957 34.2685 20.2191 33.6943 21.3554 32.4403C22.3118 33.6161 23.8175 34.3 25.7538 34.2903C28.2852 34.2782 30.5086 33.0774 31.9594 31.2379C32.7562 33.4064 34.7763 34.2685 36.9836 34.2685C41.8199 34.2685 43.9433 30.9419 45.7134 25.6847C46.1126 24.5 46.6449 22.5226 46.7336 20.8613C46.8812 18.096 45.711 15.171 41.236 15.171ZM9.05618 28.3919C11.5586 27.9573 12.1876 28.8621 12.1086 29.7C11.8723 32.2081 9.5715 32.7685 7.57392 32.7218C6.12473 32.6863 4.82231 32.0234 4.78602 30.3411C4.72231 27.3984 7.72392 20.5895 9.13682 18.3331C9.79005 17.2621 10.5852 16.7323 11.853 16.7323C13.0538 16.7323 13.3513 17.3492 13.3344 18.0887C13.2876 20.0597 10.1013 26.0508 9.05618 28.3919ZM17.2054 26.0798C17.0392 26.5282 16.7263 27.4661 16.4731 28.4613C17.2941 28.2564 17.9102 28.1137 18.9651 28.1387C20.1675 28.1685 20.936 28.6669 20.936 29.6605C20.936 32.071 18.2715 32.7782 16.4239 32.7782C14.3949 32.7782 12.6126 31.6226 12.6126 29.404C12.6126 26.8032 14.0223 22.8589 15.3457 20.2314C16.9715 17.0048 18.6312 16.5758 21.4909 16.5758C22.7481 16.5758 24.1957 17.1137 24.1957 18.3008C24.1957 19.9452 22.8013 20.5726 21.4207 20.6524C20.8312 20.6863 19.9231 20.7185 19.3796 20.6798C19.3796 20.6798 18.9207 21.3806 18.4312 22.629C20.9901 22.2685 22.0747 22.8492 21.6425 24.329C21.0586 26.3282 19.3263 26.4597 17.2054 26.0798ZM29.7884 19.8597C29.0973 19.8597 28.6441 20.2976 28.3078 20.771C27.5659 21.8121 25.9594 25.9855 25.7086 27.6992C25.5376 28.8734 26.0441 29.1121 26.5989 29.1121C27.4884 29.1121 28.4844 28.171 28.8247 26.6202C28.8247 26.6202 27.132 26.579 27.5989 25.0782C28.0521 23.6218 28.9118 23.3064 30.3376 23.2484C33.1465 23.1331 32.8699 25.2073 32.6441 26.3129C31.9142 29.904 29.3586 32.7879 25.7425 32.7879C23.2683 32.7879 21.7312 31.4185 21.7312 28.8952C21.7312 27.0968 22.6231 24.2734 23.3304 22.621C24.8352 19.1048 26.4142 16.6435 30.4368 16.6435C32.8497 16.6435 34.7538 17.5113 34.4739 19.771C34.2691 21.4306 33.4392 22.4048 31.9304 22.5226C31.5094 22.5556 29.7828 22.5121 30.3554 20.879C30.5546 20.3089 30.6368 19.8597 29.7884 19.8597ZM44.9771 22.8282C44.553 24.9452 43.5957 27.45 42.5578 29.3161C40.8634 32.3613 38.807 32.7887 37.011 32.7669C35.2134 32.7452 33.1909 32.0823 33.1747 29.3113C33.1634 27.3218 34.0215 24.5145 34.7497 22.6742C36.0191 19.3379 37.3175 16.6169 41.4191 16.6661C46.203 16.7226 45.3497 20.9758 44.9771 22.8282ZM40.9199 19.929C40.5094 19.9234 40.1513 20.004 39.8288 20.5C39.1054 21.4379 36.9892 27.2177 37.0263 28.371C37.04 28.7855 37.2691 29.1476 37.7796 29.1476C38.3651 29.1476 38.6901 28.7435 38.9771 28.2556C39.6425 27.129 41.5142 22.0202 41.5667 20.7427C41.582 20.3702 41.5199 19.9371 40.9199 19.929Z" fill="black"/>
</svg>
