<svg version="1.1" xmlns="http://www.w3.org/2000/svg" xmlns:xlink="http://www.w3.org/1999/xlink" x="0px" y="0px" viewBox="0 0 1000 1000" enable-background="new 0 0 1000 1000" xml:space="preserve">
	<g>
		<g transform="translate(0.000000,512.000000) scale(0.100000,-0.100000)">
			<path d="M100,120v-4924h3846.9h3846.9v1879.2v1881.1L8811.3-24.3c559.7,559.7,1032.9,1050.2,1052.1,1086.7c28.8,51.9,36.6,109.6,36.6,252c0,178.9-1.9,188.5-82.7,352c-73.1,148.1-113.5,198.1-346.2,430.8c-365.5,367.4-517.4,457.8-805.9,479c-221.2,17.3-273.1-11.5-596.3-327l-275-269.3v671.3v671.3l-861.7,861.7L6072.3,5044H3085.2H100V120z M5981.9,4001.5l3.9-765.5l765.5-3.8l763.6-5.8l5.8-759.8l3.8-759.8L5776.1-43.5L4027.7-1793.8l-684.8-1369.5l-684.8-1371.4H1494.5H330.8V120v4654.8l2823.6-3.9l2821.7-5.8L5981.9,4001.5z M6745.5,3986.1l480.9-480.9h-486.6h-484.7v480.9c0,265.4,1.9,480.9,5.8,480.9C6262.8,4467,6482,4251.6,6745.5,3986.1z M8886.3,2245.4c80.8-40.4,177-121.2,371.2-315.4c300.1-300.1,367.4-407.8,378.9-609.7l7.7-121.2l-123.1-125c-67.3-69.2-130.8-126.9-140.4-126.9c-11.5,0-265.4,246.2-565.5,546.3c-615.5,615.5-579,548.2-396.2,721.3l109.6,103.9l123.1-11.5C8730.5,2301.2,8815.2,2278.1,8886.3,2245.4z M8243.9,904.8L8797.9,345L7178.3-1274.5C5962.7-2490.1,5541.5-2899.8,5489.5-2919.1c-96.2-34.6-255.8-138.5-359.7-232.7l-84.6-78.9l55.8,113.5c94.3,188.5,159.6,500.1,184.6,888.6l13.5,200l-190.4-13.5c-373.2-25-640.5-80.8-850.2-176.9l-140.4-63.5l55.8,71.2c59.6,75,144.3,232.8,167.3,311.6c11.5,42.3,3308.3,3366,3339.1,3366C7686.1,1466.4,7940,1214.4,8243.9,904.8z M7524.5-2928.7v-1606.1l-2225.4,1.9H3071.7l1240.6,623.2L5553-3288.4l981,982.9c538.6,540.5,982.9,982.9,984.8,982.9C7522.6-1322.6,7524.5-2045.8,7524.5-2928.7z M5004.8-2369c0-67.3-55.8-373.1-86.6-480.9c-15.4-51.9-59.6-150-98.1-219.3c-61.5-109.6-69.2-134.6-59.6-219.3l11.5-92.3l-604-303.9l-605.9-302L3452.6-3875L3341-3765.4l292.4,584.7l292.4,586.7l101.9-11.6c94.2-9.6,109.6-3.8,207.7,63.5c57.7,40.4,150,88.5,202,109.6c107.7,40.4,409.7,105.8,505.9,107.7C4995.2-2322.8,5004.8-2328.6,5004.8-2369z" />
			<path d="M3187.1,3809.2c-253.9-273.1-675.1-832.9-879-1163.7c-53.9-88.5-103.9-159.6-109.6-159.6c-5.8,0-153.9,142.3-328.9,317.4c-340.5,342.4-375.1,361.6-457.8,273.1c-84.6-90.4-69.2-111.6,367.4-548.2c275.1-275.1,421.2-407.8,448.2-407.8c65.4,0,113.5,53.9,250,278.9c232.7,386.6,511.6,769.4,842.5,1154.1C3498.7,3763,3518,3815,3441,3886.1C3364.1,3959.2,3310.2,3941.9,3187.1,3809.2z" />
			<path d="M3187.1,1885.7c-253.9-273.1-675.1-832.9-879-1163.7c-53.9-88.5-103.9-159.6-109.6-159.6c-5.8,0-153.9,142.3-328.9,317.4c-340.5,342.4-375.1,361.6-457.8,273.1c-84.6-90.4-69.2-111.6,367.4-548.2c275.1-275.1,421.2-407.8,448.2-407.8c65.4,0,113.5,53.9,250,278.9c232.7,386.6,511.6,769.4,842.5,1154.1c178.9,209.7,198.1,261.6,121.2,332.8C3364.1,2035.8,3310.2,2018.5,3187.1,1885.7z" />
			<path d="M1638.8-1264.9V-1765h500.1H2639v500.1v500.1h-500.1h-500.1V-1264.9z M2369.7-1264.9v-230.8h-230.8H1908v230.8v230.8h230.8h230.8V-1264.9z" />
		</g>
	</g>
</svg>
