<?xml version="1.0" encoding="utf-8"?>
<!-- Svg Vector Icons : http://www.onlinewebfonts.com/icon -->
<!DOCTYPE svg PUBLIC "-//W3C//DTD SVG 1.1//EN" "http://www.w3.org/Graphics/SVG/1.1/DTD/svg11.dtd">
<svg version="1.1" xmlns="http://www.w3.org/2000/svg" xmlns:xlink="http://www.w3.org/1999/xlink" x="0px" y="0px" viewBox="0 0 1000 1000" enable-background="new 0 0 1000 1000" xml:space="preserve">
<metadata> Svg Vector Icons : http://www.onlinewebfonts.com/icon </metadata>
<g><path d="M500,42.7c251.5,0,457.3,205.8,457.3,457.3S751.5,957.3,500,957.3C248.5,957.3,42.7,751.5,42.7,500S248.5,42.7,500,42.7 M388.9,480.4c-3.3,0-3.3,3.3-6.5,3.3c-3.3,3.3-9.8,3.3-13.1,3.3c-13.1,3.3-29.4,9.8-42.5,19.6c-32.7,26.1-42.5,71.9-45.7,101.3v3.3c-6.5,29.4-9.8,52.3-9.8,75.1c0,42.5,29.4,52.3,42.5,58.8l0,0c19.6,6.5,39.2,13.1,62.1,16.3c49,9.8,84.9,16.3,120.9,16.3s75.1-6.5,120.9-16.3c22.9-6.5,42.5-9.8,62.1-16.3l0,0c13.1-6.5,45.7-16.3,42.5-55.5c0-22.9-3.3-49-6.5-75.1v-3.3c-6.5-32.7-13.1-78.4-45.7-104.5c-13.1-9.8-29.4-16.3-42.5-19.6c-3.3,0-9.8-3.3-13.1-3.3c-3.3,0-6.5-3.3-6.5-3.3c13.1-26.1,22.9-55.5,26.1-91.5c6.5-49-6.5-91.5-32.7-124.1c-16.3-19.6-49-42.5-104.5-42.5c-55.5,0-88.2,22.9-104.5,42.5c-26.1,29.4-39.2,71.9-32.7,124.1C366.1,424.9,375.9,454.3,388.9,480.4 M500,10C228.9,10,10,228.9,10,500c0,271.1,218.9,490,490,490c271.1,0,490-218.9,490-490C990,228.9,771.1,10,500,10L500,10z M500,516.3c-71.9,0-98-71.9-104.5-130.7c-9.8-71.9,26.1-127.4,104.5-127.4c78.4,0,114.3,55.5,104.5,127.4C598,444.5,571.9,516.3,500,516.3L500,516.3z M500,542.5c32.7,0,62.1-13.1,84.9-35.9c6.5,3.3,13.1,6.5,22.9,9.8c16.3,6.5,32.7,9.8,49,19.6c22.9,19.6,29.4,58.8,35.9,84.9c3.3,22.9,6.5,45.7,6.5,68.6c0,16.3-9.8,19.6-22.9,26.1c-19.6,6.5-39.2,13.1-58.8,16.3c-39.2,6.5-75.1,13.1-114.3,13.1s-78.4-6.5-114.3-13.1c-19.6-3.3-39.2-9.8-58.8-16.3c-19.6-6.5-26.1-9.8-26.1-26.1c0-22.9,3.3-45.7,6.5-68.6c6.5-26.1,9.8-68.6,35.9-84.9c13.1-9.8,32.7-13.1,49-19.6c6.5-3.3,16.3-6.5,22.9-9.8C437.9,529.4,467.3,542.5,500,542.5L500,542.5z"/></g>
</svg>